<svg xmlns="http://www.w3.org/2000/svg" width="19.085" height="38.19" viewBox="0 0 19.085 38.19">
  <path id="Path_8" data-name="Path 8" d="M176.728,64H162.367A2.375,2.375,0,0,0,160,66.377V99.823a2.373,2.373,0,0,0,2.367,2.367h14.351a2.373,2.373,0,0,0,2.367-2.367V66.377A2.36,2.36,0,0,0,176.728,64Zm-8.772,3.57a.388.388,0,0,1,.388-.388h2.417a.388.388,0,0,1,.388.388v.03a.388.388,0,0,1-.388.388h-2.417a.388.388,0,0,1-.388-.388Zm-1.193-.388a.4.4,0,1,1-.4.4A.4.4,0,0,1,166.763,67.182Zm2.785,33.426a1.6,1.6,0,1,1,1.6-1.6A1.6,1.6,0,0,1,169.547,100.609Zm7.956-4.784H161.591V70.365H177.5Z" transform="translate(-160 -64)"/>
</svg>